<svg width="33" height="33" viewBox="0 0 33 33" fill="none" xmlns="http://www.w3.org/2000/svg">
<rect width="33" height="33" rx="6" fill="#E5F0FF"/>
<path d="M16.5 13.833C16.1968 13.833 15.9004 13.7431 15.6483 13.5746C15.3962 13.4062 15.1997 13.1668 15.0837 12.8867C14.9677 12.6065 14.9373 12.2983 14.9965 12.0009C15.0556 11.7036 15.2016 11.4304 15.416 11.216C15.6304 11.0016 15.9036 10.8556 16.2009 10.7965C16.4983 10.7373 16.8065 10.7677 17.0867 10.8837C17.3668 10.9997 17.6062 11.1962 17.7746 11.4483C17.9431 11.7004 18.033 11.9968 18.033 12.3C18.033 12.5013 17.9934 12.7007 17.9163 12.8867C17.8393 13.0726 17.7263 13.2416 17.584 13.384C17.4416 13.5263 17.2726 13.6393 17.0867 13.7163C16.9007 13.7933 16.7013 13.833 16.5 13.833Z" fill="white"/>
<path d="M17.9 21.4C17.9 21.7713 17.7525 22.1274 17.49 22.3899C17.2274 22.6525 16.8713 22.8 16.5 22.8C16.1287 22.8 15.7726 22.6525 15.5101 22.3899C15.2475 22.1274 15.1 21.7713 15.1 21.4V16.5C15.1 16.1287 15.2475 15.7726 15.5101 15.51C15.7726 15.2475 16.1287 15.1 16.5 15.1C16.8713 15.1 17.2274 15.2475 17.49 15.51C17.7525 15.7726 17.9 16.1287 17.9 16.5V21.4Z" fill="white"/>
<path fill-rule="evenodd" clip-rule="evenodd" d="M16.5 6C14.4233 6 12.3932 6.61581 10.6665 7.76957C8.9398 8.92332 7.59399 10.5632 6.79927 12.4818C6.00455 14.4004 5.79661 16.5116 6.20176 18.5484C6.6069 20.5852 7.60693 22.4562 9.07538 23.9246C10.5438 25.3931 12.4148 26.3931 14.4516 26.7982C16.4884 27.2034 18.5996 26.9955 20.5182 26.2007C22.4368 25.406 24.0767 24.0602 25.2304 22.3335C26.3842 20.6068 27 18.5767 27 16.5C27 13.7152 25.8938 11.0445 23.9246 9.07538C21.9555 7.10625 19.2848 6 16.5 6ZM17.49 22.3899C17.7525 22.1274 17.9 21.7713 17.9 21.4V16.5C17.9 16.1287 17.7525 15.7726 17.49 15.51C17.2274 15.2475 16.8713 15.1 16.5 15.1C16.1287 15.1 15.7726 15.2475 15.5101 15.51C15.2475 15.7726 15.1 16.1287 15.1 16.5V21.4C15.1 21.7713 15.2475 22.1274 15.5101 22.3899C15.7726 22.6525 16.1287 22.8 16.5 22.8C16.8713 22.8 17.2274 22.6525 17.49 22.3899ZM15.6483 13.5746C15.9004 13.7431 16.1968 13.833 16.5 13.833C16.7013 13.833 16.9007 13.7933 17.0867 13.7163C17.2726 13.6393 17.4416 13.5263 17.584 13.384C17.7263 13.2416 17.8393 13.0726 17.9163 12.8867C17.9934 12.7007 18.033 12.5013 18.033 12.3C18.033 11.9968 17.9431 11.7004 17.7746 11.4483C17.6062 11.1962 17.3668 10.9997 17.0867 10.8837C16.8065 10.7677 16.4983 10.7373 16.2009 10.7965C15.9036 10.8556 15.6304 11.0016 15.416 11.216C15.2016 11.4304 15.0556 11.7036 14.9965 12.0009C14.9373 12.2983 14.9677 12.6065 15.0837 12.8867C15.1997 13.1668 15.3962 13.4062 15.6483 13.5746Z" fill="white"/>
<path fill-rule="evenodd" clip-rule="evenodd" d="M16.5 6C14.4233 6 12.3932 6.61581 10.6665 7.76957C8.9398 8.92332 7.59399 10.5632 6.79927 12.4818C6.00455 14.4004 5.79661 16.5116 6.20176 18.5484C6.6069 20.5852 7.60693 22.4562 9.07538 23.9246C10.5438 25.3931 12.4148 26.3931 14.4516 26.7982C16.4884 27.2034 18.5996 26.9955 20.5182 26.2007C22.4368 25.406 24.0767 24.0602 25.2304 22.3335C26.3842 20.6068 27 18.5767 27 16.5C27 13.7152 25.8938 11.0445 23.9246 9.07538C21.9555 7.10625 19.2848 6 16.5 6ZM17.49 22.3899C17.7525 22.1274 17.9 21.7713 17.9 21.4V16.5C17.9 16.1287 17.7525 15.7726 17.49 15.51C17.2274 15.2475 16.8713 15.1 16.5 15.1C16.1287 15.1 15.7726 15.2475 15.5101 15.51C15.2475 15.7726 15.1 16.1287 15.1 16.5V21.4C15.1 21.7713 15.2475 22.1274 15.5101 22.3899C15.7726 22.6525 16.1287 22.8 16.5 22.8C16.8713 22.8 17.2274 22.6525 17.49 22.3899ZM15.6483 13.5746C15.9004 13.7431 16.1968 13.833 16.5 13.833C16.7013 13.833 16.9007 13.7933 17.0867 13.7163C17.2726 13.6393 17.4416 13.5263 17.584 13.384C17.7263 13.2416 17.8393 13.0726 17.9163 12.8867C17.9934 12.7007 18.033 12.5013 18.033 12.3C18.033 11.9968 17.9431 11.7004 17.7746 11.4483C17.6062 11.1962 17.3668 10.9997 17.0867 10.8837C16.8065 10.7677 16.4983 10.7373 16.2009 10.7965C15.9036 10.8556 15.6304 11.0016 15.416 11.216C15.2016 11.4304 15.0556 11.7036 14.9965 12.0009C14.9373 12.2983 14.9677 12.6065 15.0837 12.8867C15.1997 13.1668 15.3962 13.4062 15.6483 13.5746Z" fill="#4A69FF"/>
</svg>
